HIERARCHY
ROOT root     
{
	OFFSET 0.0000 0.0000 0.0000
	CHANNELS 6 Xposition Yposition Zposition Zrotation Yrotation Xrotation
	JOINT pelvis   
	{
		OFFSET 0.0000 0.0000 0.0000
		CHANNELS 3 Zrotation Yrotation Xrotation
		JOINT thorax   
		{
			OFFSET 0.0000 23.0750 -5.0000
			CHANNELS 3 Zrotation Yrotation Xrotation
			JOINT rclavicle
			{
				OFFSET 0.0000 28.0009 0.0000
				CHANNELS 3 Zrotation Yrotation Xrotation
				JOINT rhumerus 
				{
					OFFSET -18.5725 5.5939 0.0000
					CHANNELS 3 Zrotation Yrotation Xrotation
					JOINT rradius  
					{
						OFFSET -24.8459 0.0000 0.0000
						CHANNELS 3 Zrotation Yrotation Xrotation
						JOINT rhand    
						{
							OFFSET -24.5477 0.0000 0.0000
							CHANNELS 3 Zrotation Yrotation Xrotation
							End Site
							{
								OFFSET -8.1826 0.0000 0.0000
							}
						}
					}
				}
			}
			JOINT lclavicle
			{
				OFFSET 0.0000 28.0009 0.0000
				CHANNELS 3 Zrotation Yrotation Xrotation
				JOINT lhumerus 
				{
					OFFSET 18.5725 5.5939 0.0000
					CHANNELS 3 Zrotation Yrotation Xrotation
					JOINT lradius  
					{
						OFFSET 24.8459 0.0000 0.0000
						CHANNELS 3 Zrotation Yrotation Xrotation
						JOINT lhand    
						{
							OFFSET 24.5477 0.0000 0.0000
							CHANNELS 3 Zrotation Yrotation Xrotation
							End Site
							{
								OFFSET 8.1826 0.0000 0.0000
							}
						}
					}
				}
			}
			JOINT head     
			{
				OFFSET 0.0000 35.2030 0.0000
				CHANNELS 3 Zrotation Yrotation Xrotation
				End Site
				{
					OFFSET 0.0000 11.7343 0.0000
				}
			}
		}
		JOINT rfemur   
		{
			OFFSET -8.2817 0.0000 0.0000
			CHANNELS 3 Zrotation Yrotation Xrotation
			JOINT rtibia   
			{
				OFFSET 0.0000 -43.3627 0.0000
				CHANNELS 3 Zrotation Yrotation Xrotation
				JOINT rfoot    
				{
					OFFSET 0.0000 -38.2947 0.0000
					CHANNELS 3 Zrotation Yrotation Xrotation
					JOINT rtoes    
					{
						OFFSET 0.0000 0.0000 16.6054
						CHANNELS 3 Zrotation Yrotation Xrotation
						End Site
						{
							OFFSET 0.0000 0.0000 5.5351
						}
					}
				}
			}
		}
		JOINT lfemur   
		{
			OFFSET 8.2817 0.0000 0.0000
			CHANNELS 3 Zrotation Yrotation Xrotation
			JOINT ltibia   
			{
				OFFSET 0.0000 -43.3627 0.0000
				CHANNELS 3 Zrotation Yrotation Xrotation
				JOINT lfoot    
				{
					OFFSET 0.0000 -38.2947 0.0000
					CHANNELS 3 Zrotation Yrotation Xrotation
					JOINT ltoes    
					{
						OFFSET 0.0000 0.0000 16.6054
						CHANNELS 3 Zrotation Yrotation Xrotation
						End Site
						{
							OFFSET 0.0000 0.0000 5.5351
						}
					}
				}
			}
		}
	}
}
MOTION
Frames: 12
Frame Time: .0333333
32.025 86.775 3.5626 5.14191 -66.7539 7.62085 0 -0 0 -10.0934 10.0359 -10.2379 0.960103 8.30571 3.05079e-07 35.1038 55.0941 -35.7468 5.99705e-09 1.1381 6.03805e-07 -2.6326 -12.2747 0.283099 -21.0651 8.36052 3.09286e-05 -72.2002 -54.0148 22.5194 -180 -44.4558 180 26.2055 -20.3091 -4.77448 -2.68476 -11.1117 2.62694 -0.767713 -11.6906 -8.30758 -0 -0 4.16608 1.53168 -19.0576 5.20004 -3.40422 -1.63133e-05 -24.6625 1.07666 1.99885 -14.1873 -0 -0 1.17458 5.81109e-07 -0.625298 13.3944 -0.144896 1.36928e-06 -30.2661 
31.943 86.752 3.5837 5.08825 -67.0426 7.41359 0 -0 0 -10.013 9.64699 -10.0839 1.9113 8.54443 -4.33155e-06 37.0864 54.7774 -34.9465 0 1.98494 0 -3.16577 -11.0158 0.305395 -20.8317 8.29404 -1.61403e-05 -71.762 -53.9184 21.9156 -180 -44.4046 180 26.4691 -20.4086 -4.84835 -2.25865 -10.8613 2.62162 -0.810284 -11.5093 -8.07309 -0 -0 4.26753 1.56382 -18.9959 5.06843 -3.38638 5.82744e-06 -24.6436 1.12101 2.12617 -13.8472 -0 -0 1.19737 1.11587e-06 -0.487898 13.2431 -0.111798 -3.62121e-07 -30.396 
31.867 86.733 3.608 5.03447 -67.394 7.21333 0 -0 0 -9.89899 9.26958 -9.93228 2.78775 8.70338 6.56219e-06 38.9279 54.5261 -34.2269 -0 2.86831 -0 -3.41049 -9.64055 0.287689 -20.5999 8.24867 -7.45698e-05 -71.3676 -53.8578 21.2893 -180 -44.4123 180 26.7969 -20.4723 -4.92616 -1.90353 -10.567 2.60236 -0.854255 -11.3229 -7.84608 -0 -0 4.34214 1.58102 -18.883 4.9759 -3.36101 3.75173e-06 -24.665 1.16056 2.28622 -13.5104 -0 -0 1.22811 -1.13442e-06 -0.319997 13.0896 -0.0724997 6.32545e-09 -30.5043 
31.8 86.717 3.6343 4.98058 -67.8021 7.03559 0 -0 0 -9.75427 8.89229 -9.80557 3.55103 8.80168 -2.48742e-06 40.7976 54.204 -33.1851 0 4.08034 0 -3.30088 -8.50996 0.245699 -20.3685 8.22886 -2.51734e-05 -71.0096 -53.8224 20.6425 -180 -44.4706 180 27.1651 -20.482 -4.99874 -1.62134 -10.2211 2.58436 -0.895152 -11.1463 -7.64319 -0 -0 4.38885 1.58258 -18.7124 4.9247 -3.3274 -2.93354e-07 -24.7275 1.18895 2.50166 -13.2104 -0 -0 1.29043 -1.44612e-07 -0.156104 12.9245 -0.0349002 -1.90761e-08 -30.5939 
31.741 86.706 3.6642 4.93108 -68.2629 6.87614 0 -0 0 -9.58731 8.52263 -9.70868 4.23975 8.7938 6.7263e-06 42.6248 53.9113 -31.7634 0 5.48027 0 -2.85062 -7.66105 0.1909 -20.146 8.23868 2.94216e-06 -70.6982 -53.8168 19.9995 -180 -44.5834 180 27.535 -20.4345 -5.05736 -1.40556 -9.82703 2.58023 -0.935593 -10.9839 -7.46531 -0 -0 4.41193 1.56962 -18.4802 4.91472 -3.28631 1.04985e-05 -24.8406 1.20827 2.75323 -12.9312 -0 -0 1.35599 -1.23944e-07 0.0220995 12.7634 0.00490003 4.91953e-08 -30.6554 
31.69 86.699 3.6975 4.88714 -68.7654 6.74179 0 -0 0 -9.40457 8.15231 -9.65637 4.86044 8.69724 -4.70476e-06 44.4435 53.5519 -29.7359 3.83002e-08 7.21707 6.07324e-07 -2.11385 -7.24934 0.133898 -19.933 8.27434 -2.19415e-05 -70.4354 -53.8306 19.374 -180 -44.7503 180 27.8768 -20.3235 -5.09418 -1.2452 -9.38725 2.60771 -0.974436 -10.8449 -7.31953 -0 -0 4.41296 1.54344 -18.188 4.94366 -3.23773 -4.4175e-06 -25.0042 1.21623 3.04344 -12.6843 -0 -0 1.42912 1.62253e-06 0.198803 12.6066 0.0433993 -2.67376e-07 -30.6909 
31.646 86.696 3.735 4.85083 -69.2981 6.63258 0 -0 0 -9.2123 7.7774 -9.65474 5.43062 8.52336 1.45485e-06 46.1911 53.0898 -27.1028 4.96854e-08 9.31685 6.09757e-07 -1.18543 -7.27762 0.0754023 -19.7328 8.33122 1.02112e-05 -70.2173 -53.8565 18.7777 -180 -44.9674 180 28.1603 -20.1549 -5.1045 -1.12748 -8.90974 2.68129 -1.01206 -10.7329 -7.2073 -0 -0 4.39538 1.50606 -17.8416 5.0076 -3.18298 1.82212e-05 -25.2202 1.21319 3.36151 -12.4696 -0 -0 1.50144 6.64138e-07 0.373999 12.4556 0.0807016 -1.75463e-07 -30.7011 
31.61 86.697 3.7769 4.82477 -69.8459 6.54958 0 -0 0 -9.01709 7.38957 -9.71035 5.9698 8.30752 2.69135e-07 47.7781 52.4468 -23.899 0 11.8573 0 -0.1493 -7.72694 0.0101 -19.5355 8.39564 2.54299e-05 -70.0427 -53.882 18.2199 -180 -45.2203 180 28.3751 -19.917 -5.08316 -1.03659 -8.40247 2.81469 -1.04872 -10.6479 -7.13039 -0 -0 4.36155 1.4599 -17.4548 5.10137 -3.12351 -7.60899e-06 -25.4831 1.19739 3.70778 -12.2924 -0 -0 1.57921 7.5198e-07 0.533397 12.309 0.113701 2.27579e-07 -30.688 
31.578 86.7 3.824 4.80933 -70.4073 6.48559 0 -0 0 -8.81814 6.98813 -9.81595 6.48434 8.05499 3.01166e-06 49.1119 51.6879 -20.4942 0 14.6885 0 0.883295 -8.39376 -0.0647992 -19.3546 8.46503 6.87017e-05 -69.9018 -53.9144 17.7054 -180 -45.5108 180 28.504 -19.6355 -5.0337 -0.962612 -7.87665 3.0117 -1.08591 -10.5852 -7.08226 -0 -0 4.31518 1.40773 -17.0392 5.21928 -3.06109 -1.35571e-05 -25.7897 1.17202 4.06206 -12.142 -0 -0 1.64764 -2.0426e-06 0.688802 12.1708 0.145193 -1.28398e-06 -30.6526 
31.551 86.706 3.8765 4.80421 -70.9681 6.43675 0 -0 0 -8.61357 6.56788 -9.96474 6.96688 7.7859 -5.19071e-06 50.171 50.8516 -17.1802 0 17.7281 0 1.84493 -9.12986 -0.147302 -19.1909 8.53117 -5.05819e-05 -69.7732 -53.9497 17.2214 -180 -45.8257 180 28.5572 -19.3146 -4.95949 -0.897887 -7.34026 3.27186 -1.12482 -10.5369 -7.05884 -0 -0 4.25874 1.35219 -16.609 5.35486 -2.99743 -6.57561e-06 -26.1339 1.13748 4.41913 -12.0143 -0 -0 1.70873 2.6173e-06 0.836396 12.0408 0.174496 -3.02522e-07 -30.5985 
31.528 86.712 3.9344 4.81129 -71.5235 6.39614 0 -0 0 -8.40125 6.12802 -10.1442 7.42192 7.49667 -8.08543e-06 50.9663 50.0166 -14.1323 0 20.8608 0 2.66655 -9.76363 -0.227804 -19.0461 8.58934 -5.45697e-05 -69.6473 -53.9874 16.7637 -180 -46.1553 180 28.5435 -18.973 -4.86782 -0.835992 -6.80201 3.58653 -1.16699 -10.4926 -7.05295 -0 -0 4.1951 1.29569 -16.1822 5.50205 -2.93484 2.88817e-06 -26.508 1.09565 4.76984 -11.9033 -0 -0 1.75986 -3.3909e-06 0.979994 11.9143 0.202298 2.54691e-07 -30.5285 
31.507 86.718 3.9977 4.83185 -72.0725 6.35562 0 -0 0 -8.17795 5.66898 -10.34 7.83946 7.19259 -1.26269e-05 51.5565 49.2217 -11.4465 0 24.0302 0 3.30183 -10.1911 -0.294503 -18.9198 8.63458 3.09423e-05 -69.5001 -54.0316 16.3148 -180 -46.4897 180 28.4826 -18.6255 -4.76657 -0.773601 -6.26952 3.94198 -1.21434 -10.4405 -7.05782 -0 -0 4.12667 1.24041 -15.7722 5.65422 -2.87486 4.18718e-07 -26.9032 1.04787 5.10859 -11.801 -0 -0 1.80086 -1.73641e-06 1.1221 11.7923 0.229298 7.39322e-07 -30.4463 
